<?xml version="1.0" encoding="UTF-8" standalone="no"?>
<!-- Created with Inkscape (http://www.inkscape.org/) -->

<svg
   xmlns:dc="http://purl.org/dc/elements/1.1/"
   xmlns:cc="http://creativecommons.org/ns#"
   xmlns:rdf="http://www.w3.org/1999/02/22-rdf-syntax-ns#"
   xmlns:svg="http://www.w3.org/2000/svg"
   xmlns="http://www.w3.org/2000/svg"
   xmlns:sodipodi="http://sodipodi.sourceforge.net/DTD/sodipodi-0.dtd"
   xmlns:inkscape="http://www.inkscape.org/namespaces/inkscape"
   width="184.07352mm"
   height="40.867207mm"
   viewBox="0 0 184.07352 40.867207"
   version="1.1"
   id="svg4739"
   inkscape:version="0.92.4 5da689c313, 2019-01-14"
   sodipodi:docname="taghub.svg">
  <defs
     id="defs4733" />
  <sodipodi:namedview
     id="base"
     pagecolor="#ffffff"
     bordercolor="#666666"
     borderopacity="1.0"
     inkscape:pageopacity="0.0"
     inkscape:pageshadow="2"
     inkscape:zoom="0.7"
     inkscape:cx="666.01332"
     inkscape:cy="163.95225"
     inkscape:document-units="mm"
     inkscape:current-layer="layer1"
     showgrid="false"
     fit-margin-top="0"
     fit-margin-left="0"
     fit-margin-right="0"
     fit-margin-bottom="0"
     inkscape:window-width="1920"
     inkscape:window-height="1012"
     inkscape:window-x="0"
     inkscape:window-y="0"
     inkscape:window-maximized="1" />
  <metadata
     id="metadata4736">
    <rdf:RDF>
      <cc:Work
         rdf:about="">
        <dc:format>image/svg+xml</dc:format>
        <dc:type
           rdf:resource="http://purl.org/dc/dcmitype/StillImage" />
        <dc:title></dc:title>
      </cc:Work>
    </rdf:RDF>
  </metadata>
  <g
     inkscape:label="Layer 1"
     inkscape:groupmode="layer"
     id="layer1"
     transform="translate(-19.088239,-91.358066)">
    <rect
       style="fill:#344150;fill-opacity:1;stroke:#ffffff;stroke-width:1;stroke-miterlimit:4;stroke-dasharray:none;stroke-opacity:0.94117647"
       id="rect5327"
       width="229.80951"
       height="62.36607"
       x="4.3471737"
       y="10.138968" />
    <path
       inkscape:connector-curvature="0"
       id="path5329"
       style="font-style:normal;font-variant:normal;font-weight:normal;font-stretch:normal;font-size:40.32316971px;line-height:1.25;font-family:'Droid Sans';-inkscape-font-specification:'Droid Sans';letter-spacing:0px;word-spacing:0px;fill:#344150;fill-opacity:1;stroke:none;stroke-width:0.23263367"
       d="m 88.276165,119.99837 q 0.354403,0 0.787562,-0.0394 0.452848,-0.0394 0.866318,-0.0984 0.41347,-0.0591 0.748184,-0.13782 0.354403,-0.0788 0.531604,-0.13783 v 2.71709 q -0.255957,0.11814 -0.649738,0.23627 -0.393781,0.11814 -0.866318,0.19689 -0.472537,0.0984 -0.984453,0.13783 -0.511915,0.0591 -1.004141,0.0591 -1.220721,0 -2.264241,-0.31502 -1.043519,-0.31503 -1.811392,-1.0829 -0.748184,-0.76787 -1.181343,-2.06735 -0.433159,-1.31917 -0.433159,-3.30776 v -12.54192 h -3.051802 v -1.59482 l 3.051802,-1.53574 1.535746,-4.528483 h 2.06735 v 4.961643 h 5.434177 v 2.6974 h -5.434177 v 12.54192 q 0,1.90984 0.61036,2.8746 0.63005,0.96476 2.047661,0.96476 z" />
    <path
       inkscape:connector-curvature="0"
       id="path5331"
       style="font-style:normal;font-variant:normal;font-weight:normal;font-stretch:normal;font-size:40.32316971px;line-height:1.25;font-family:'Droid Sans';-inkscape-font-specification:'Droid Sans';letter-spacing:0px;word-spacing:0px;fill:#344150;fill-opacity:1;stroke:none;stroke-width:0.23263367"
       d="m 107.59112,122.53826 -0.72849,-2.99273 h -0.15752 q -0.64973,0.886 -1.29947,1.53574 -0.64974,0.63005 -1.41761,1.04352 -0.76788,0.41347 -1.71295,0.61036 -0.94508,0.19689 -2.18549,0.19689 -1.358541,0 -2.500505,-0.39378 -1.141965,-0.37409 -1.988594,-1.16165 -0.82694,-0.80725 -1.299477,-2.00829 -0.472538,-1.22072 -0.472538,-2.8746 0,-3.229 2.264241,-4.96164 2.283929,-1.73263 6.930543,-1.89014 l 3.62279,-0.13783 v -1.35854 q 0,-1.31917 -0.29534,-2.20518 -0.27565,-0.886 -0.82694,-1.41761 -0.5316,-0.55129 -1.33885,-0.78756 -0.78757,-0.23627 -1.8114,-0.23627 -1.63419,0 -3.051799,0.47254 -1.397923,0.47254 -2.6974,1.14196 l -1.260099,-2.6974 q 1.45699,-0.78756 3.248693,-1.33885 1.791705,-0.55129 3.760605,-0.55129 2.00829,0 3.46528,0.41347 1.47667,0.39378 2.42175,1.27978 0.96476,0.86632 1.4373,2.22487 0.47254,1.35854 0.47254,3.28807 v 14.80616 z m -6.57614,-2.50051 q 1.20103,0 2.22486,-0.37409 1.02383,-0.37409 1.77202,-1.12228 0.74818,-0.76787 1.16165,-1.90983 0.43316,-1.16166 0.43316,-2.71709 v -1.94922 l -2.81554,0.13783 q -1.77201,0.0787 -2.97304,0.39378 -1.201034,0.31502 -1.929528,0.886 -0.708806,0.5513 -1.023831,1.35855 -0.315025,0.78756 -0.315025,1.7917 0,1.81139 0.945075,2.65802 0.964763,0.84663 2.520199,0.84663 z" />
    <path
       inkscape:connector-curvature="0"
       id="path5333"
       style="font-style:normal;font-variant:normal;font-weight:normal;font-stretch:normal;font-size:40.32316971px;line-height:1.25;font-family:'Droid Sans';-inkscape-font-specification:'Droid Sans';letter-spacing:0px;word-spacing:0px;fill:#344150;fill-opacity:1;stroke:none;stroke-width:0.23263367"
       d="m 133.46253,100.91969 v 2.22486 l -3.87874,0.5316 q 0.55129,0.68912 0.92538,1.77202 0.37409,1.06321 0.37409,2.42175 0,1.49637 -0.47253,2.77616 -0.45285,1.2601 -1.39793,2.18548 -0.92538,0.92539 -2.30361,1.45699 -1.37824,0.51192 -3.20932,0.51192 -0.43316,0 -0.86632,0 -0.43316,-0.0197 -0.7088,-0.0788 -0.33472,0.19689 -0.66943,0.45285 -0.31503,0.23627 -0.59067,0.55129 -0.25596,0.31503 -0.43316,0.70881 -0.15751,0.39378 -0.15751,0.86631 0,0.53161 0.23626,0.86632 0.23627,0.31503 0.63005,0.49223 0.41347,0.1772 0.96477,0.23627 0.55129,0.0591 1.16165,0.0591 h 3.46527 q 1.83109,0 3.09118,0.47254 1.2601,0.45285 2.04767,1.24041 0.80725,0.78756 1.16165,1.87046 0.3544,1.06321 0.3544,2.26424 0,1.73264 -0.64974,3.11087 -0.63005,1.37823 -1.94921,2.32331 -1.31917,0.96476 -3.34714,1.47668 -2.00828,0.51191 -4.74506,0.51191 -2.10673,0 -3.68185,-0.41347 -1.57513,-0.41347 -2.61865,-1.20103 -1.04352,-0.78756 -1.57512,-1.90984 -0.51192,-1.10258 -0.51192,-2.50051 0,-1.18134 0.3741,-2.08703 0.39378,-0.88601 1.04352,-1.53575 0.64973,-0.64974 1.49636,-1.06321 0.86632,-0.41347 1.79171,-0.63005 -0.82694,-0.37409 -1.35855,-1.18134 -0.5316,-0.80725 -0.5316,-1.85077 0,-1.20103 0.63005,-2.06735 0.63005,-0.88601 1.98859,-1.71295 -0.84663,-0.3544 -1.55543,-0.96476 -0.68912,-0.63005 -1.18135,-1.41761 -0.47253,-0.80725 -0.74818,-1.75233 -0.25596,-0.94507 -0.25596,-1.94921 0,-1.75233 0.49223,-3.13056 0.49222,-1.37824 1.45699,-2.343 0.96476,-0.96476 2.40206,-1.47668 1.4373,-0.51191 3.34714,-0.51191 0.72849,0 1.49637,0.11813 0.78756,0.0984 1.31916,0.27565 z m -15.96782,25.1626 q 0,0.72849 0.25596,1.35854 0.25596,0.63005 0.82694,1.0829 0.59067,0.45285 1.53574,0.70881 0.96477,0.27564 2.38238,0.27564 3.66216,0 5.47355,-1.14196 1.83109,-1.12228 1.83109,-3.24869 0,-0.9057 -0.23627,-1.47668 -0.23627,-0.57098 -0.78756,-0.9057 -0.53161,-0.31502 -1.41762,-0.43316 -0.886,-0.11813 -2.16579,-0.11813 h -3.46527 q -0.68912,0 -1.4373,0.15751 -0.74819,0.15751 -1.37824,0.59067 -0.61036,0.43316 -1.02383,1.18135 -0.39378,0.76787 -0.39378,1.9689 z m 1.81139,-18.21237 q 0,2.26424 1.06321,3.36683 1.06321,1.10258 3.01243,1.10258 1.9689,0 2.97304,-1.08289 1.02383,-1.10259 1.02383,-3.44559 0,-2.42175 -1.04352,-3.56371 -1.02383,-1.14197 -2.99273,-1.14197 -1.94922,0 -2.99274,1.18134 -1.04352,1.18135 -1.04352,3.58341 z" />
    <path
       inkscape:connector-curvature="0"
       id="path5335"
       style="font-style:normal;font-variant:normal;font-weight:normal;font-stretch:normal;font-size:40.32316971px;line-height:1.25;font-family:'Droid Sans';-inkscape-font-specification:'Droid Sans';letter-spacing:0px;word-spacing:0px;fill:#344150;fill-opacity:1;stroke:none;stroke-width:0.23263367"
       d="M 151.20236,122.53826 V 108.6181 q 0,-2.55957 -1.04352,-3.83936 -1.02383,-1.27979 -3.229,-1.27979 -1.59482,0 -2.67771,0.51192 -1.0829,0.51191 -1.75233,1.51605 -0.64974,1.00415 -0.94507,2.46114 -0.27565,1.45698 -0.27565,3.34713 v 11.20307 h -3.58341 V 91.902103 h 3.58341 v 9.096337 l -0.15751,2.83523 h 0.19689 q 0.49222,-0.84663 1.16165,-1.45699 0.68912,-0.63005 1.49637,-1.04352 0.80725,-0.41347 1.71295,-0.61036 0.90569,-0.19689 1.85077,-0.19689 3.60309,0 5.41449,1.89014 1.83108,1.87046 1.83108,6.00516 v 14.11705 z" />
    <path
       inkscape:connector-curvature="0"
       id="path5337"
       style="font-style:normal;font-variant:normal;font-weight:normal;font-stretch:normal;font-size:40.32316971px;line-height:1.25;font-family:'Droid Sans';-inkscape-font-specification:'Droid Sans';letter-spacing:0px;word-spacing:0px;fill:#344150;fill-opacity:1;stroke:none;stroke-width:0.23263367"
       d="m 175.43958,122.53826 -0.53161,-2.89429 h -0.19689 q -0.49222,0.84663 -1.18134,1.47668 -0.66943,0.61036 -1.47668,1.02383 -0.80725,0.39378 -1.71295,0.59067 -0.90569,0.19689 -1.85077,0.19689 -1.7917,0 -3.15024,-0.45285 -1.35855,-0.45284 -2.26424,-1.41761 -0.9057,-0.96476 -1.37824,-2.46113 -0.45285,-1.49637 -0.45285,-3.56372 v -14.11704 h 3.58341 v 13.92015 q 0,2.55958 1.04352,3.83937 1.04352,1.27979 3.229,1.27979 1.59482,0 2.67771,-0.51192 1.0829,-0.51191 1.73264,-1.49637 0.66943,-1.00414 0.94508,-2.46113 0.29533,-1.45699 0.29533,-3.34714 v -11.22275 h 3.58341 v 21.61857 z" />
    <path
       inkscape:connector-curvature="0"
       id="path5339"
       style="font-style:normal;font-variant:normal;font-weight:normal;font-stretch:normal;font-size:40.32316971px;line-height:1.25;font-family:'Droid Sans';-inkscape-font-specification:'Droid Sans';letter-spacing:0px;word-spacing:0px;fill:#344150;fill-opacity:1;stroke:none;stroke-width:0.23263367"
       d="m 194.95143,100.52591 q 1.85077,0 3.36682,0.7088 1.51606,0.70881 2.57927,2.12642 1.0829,1.39792 1.67357,3.48496 0.59067,2.08704 0.59067,4.84351 0,2.77615 -0.59067,4.88288 -0.59067,2.08704 -1.67357,3.50465 -1.06321,1.41761 -2.57927,2.14611 -1.51605,0.7088 -3.36682,0.7088 -1.16166,0 -2.10673,-0.25596 -0.94507,-0.25595 -1.71295,-0.66942 -0.74818,-0.43316 -1.33885,-1.00414 -0.57099,-0.57099 -1.02383,-1.20104 h -0.23627 l -0.7285,2.73678 h -2.61864 V 91.902103 h 3.58341 v 7.403082 q 0,0.689117 -0.0197,1.476675 -0.0197,0.76788 -0.0591,1.4373 -0.0394,0.78757 -0.0788,1.53575 h 0.15752 q 0.45284,-0.68912 1.02383,-1.27979 0.57098,-0.59067 1.31916,-1.02383 0.76788,-0.43316 1.71295,-0.66943 0.94507,-0.25595 2.12642,-0.25595 z m -0.68912,2.97304 q -1.57512,0 -2.63833,0.51192 -1.04352,0.49222 -1.69326,1.51605 -0.63005,1.02383 -0.9057,2.55958 -0.25595,1.53575 -0.25595,3.6031 0,1.98859 0.25595,3.54402 0.27565,1.53575 0.9057,2.59896 0.64974,1.04352 1.71295,1.59481 1.06321,0.53161 2.65802,0.53161 2.65802,0 3.89843,-2.14611 1.2601,-2.14611 1.2601,-6.16267 0,-4.09532 -1.2601,-6.1233 -1.24041,-2.02797 -3.93781,-2.02797 z" />
    <circle
       r="9.4568377"
       cy="-28.545076"
       cx="100.8149"
       id="circle4710"
       style="fill:#df6756;fill-opacity:1;stroke-width:1.0287683"
       transform="rotate(90)" />
    <circle
       transform="rotate(90)"
       style="fill:#df6756;fill-opacity:1;stroke-width:0.72455508"
       id="circle4712"
       cx="103.61134"
       cy="-64.240891"
       r="6.6603918" />
    <circle
       r="6.6603918"
       cy="-48.778187"
       cx="123.02197"
       id="circle4714"
       style="fill:#df6756;fill-opacity:1;stroke-width:0.72455508"
       transform="rotate(90)" />
    <text
       id="text5319"
       y="53.746613"
       x="78.313507"
       style="font-style:normal;font-variant:normal;font-weight:normal;font-stretch:normal;font-size:9.30534744px;line-height:1.25;font-family:'JetBrains Mono';-inkscape-font-specification:'JetBrains Mono';letter-spacing:0px;word-spacing:0px;fill:#ffffff;fill-opacity:1;stroke:none;stroke-width:0.23263367;"
       xml:space="preserve"><tspan
         style="font-style:normal;font-variant:normal;font-weight:normal;font-stretch:normal;font-size:40.32316971px;font-family:'Droid Sans';-inkscape-font-specification:'Droid Sans';fill:#ffffff;fill-opacity:1;stroke-width:0.23263367;"
         y="53.746613"
         x="78.313507"
         id="tspan5317"
         sodipodi:role="line">taghub</tspan></text>
    <circle
       transform="rotate(90)"
       style="fill:#df6756;fill-opacity:1;stroke-width:1.0287683"
       id="circle5321"
       cx="32.023243"
       cy="-28.545076"
       r="9.4568377" />
    <circle
       r="6.6603918"
       cy="-64.240891"
       cx="34.819687"
       id="circle5323"
       style="fill:#df6756;fill-opacity:1;stroke-width:0.72455508"
       transform="rotate(90)" />
    <circle
       transform="rotate(90)"
       style="fill:#df6756;fill-opacity:1;stroke-width:0.72455508"
       id="circle5325"
       cx="54.230324"
       cy="-48.778187"
       r="6.6603918" />
  </g>
</svg>
