<?xml version="1.0" encoding="UTF-8" standalone="no"?>
<svg
   xmlns:dc="http://purl.org/dc/elements/1.1/"
   xmlns:cc="http://creativecommons.org/ns#"
   xmlns:rdf="http://www.w3.org/1999/02/22-rdf-syntax-ns#"
   xmlns:svg="http://www.w3.org/2000/svg"
   xmlns="http://www.w3.org/2000/svg"
   id="svg5998"
   version="1.1"
   viewBox="0 0 196.77353 40.867207"
   height="40.867207mm"
   width="196.77353mm">
  <defs
     id="defs5992" />
  <metadata
     id="metadata5995">
    <rdf:RDF>
      <cc:Work
         rdf:about="">
        <dc:format>image/svg+xml</dc:format>
        <dc:type
           rdf:resource="http://purl.org/dc/dcmitype/StillImage" />
        <dc:title></dc:title>
      </cc:Work>
    </rdf:RDF>
  </metadata>
  <g
     transform="translate(-47.931155,-166.14424)"
     id="layer1">
    <g
       id="text5969"
       style="font-style:normal;font-variant:normal;font-weight:normal;font-stretch:normal;font-size:9.30534744px;line-height:1.25;font-family:'JetBrains Mono';-inkscape-font-specification:'JetBrains Mono';letter-spacing:0px;word-spacing:0px;fill:#ffffff;fill-opacity:1;stroke:none;stroke-width:0.23263367"
       aria-label="taghub">
      <path
         id="path6687"
         style="font-style:normal;font-variant:normal;font-weight:normal;font-stretch:normal;font-size:40.32316971px;font-family:'Droid Sans';-inkscape-font-specification:'Droid Sans';fill:#ffffff;fill-opacity:1;stroke-width:0.23263367"
         d="m 129.81909,194.78455 q 0.3544,0 0.78756,-0.0394 0.45285,-0.0394 0.86632,-0.0985 0.41347,-0.0591 0.74818,-0.13782 0.3544,-0.0788 0.53161,-0.13782 v 2.71708 q -0.25596,0.11814 -0.64974,0.23627 -0.39378,0.11814 -0.86632,0.19689 -0.47254,0.0984 -0.98445,0.13783 -0.51192,0.0591 -1.00414,0.0591 -1.22073,0 -2.26424,-0.31502 -1.04352,-0.31503 -1.8114,-1.0829 -0.74818,-0.76787 -1.18134,-2.06735 -0.43316,-1.31917 -0.43316,-3.30776 v -12.54192 h -3.0518 v -1.59482 l 3.0518,-1.53574 1.53575,-4.52848 h 2.06735 v 4.96164 h 5.43417 v 2.6974 h -5.43417 v 12.54192 q 0,1.90984 0.61036,2.8746 0.63005,0.96477 2.04766,0.96477 z" />
      <path
         id="path6689"
         style="font-style:normal;font-variant:normal;font-weight:normal;font-stretch:normal;font-size:40.32316971px;font-family:'Droid Sans';-inkscape-font-specification:'Droid Sans';fill:#ffffff;fill-opacity:1;stroke-width:0.23263367"
         d="m 149.13404,197.32443 -0.72849,-2.99273 h -0.15751 q -0.64974,0.886 -1.29948,1.53574 -0.64974,0.63005 -1.41761,1.04352 -0.76787,0.41347 -1.71295,0.61036 -0.94507,0.19689 -2.18548,0.19689 -1.35855,0 -2.50051,-0.39378 -1.14197,-0.37409 -1.9886,-1.16165 -0.82694,-0.80725 -1.29947,-2.00828 -0.47254,-1.22073 -0.47254,-2.87461 0,-3.229 2.26424,-4.96164 2.28393,-1.73263 6.93054,-1.89014 l 3.62279,-0.13783 v -1.35854 q 0,-1.31917 -0.29534,-2.20517 -0.27564,-0.88601 -0.82694,-1.41762 -0.5316,-0.55129 -1.33885,-0.78756 -0.78756,-0.23627 -1.81139,-0.23627 -1.63419,0 -3.05181,0.47254 -1.39792,0.47254 -2.6974,1.14197 l -1.26009,-2.6974 q 1.45698,-0.78757 3.24869,-1.33886 1.7917,-0.55129 3.76061,-0.55129 2.00828,0 3.46527,0.41347 1.47668,0.39378 2.42175,1.27979 0.96476,0.86631 1.4373,2.22486 0.47254,1.35854 0.47254,3.28807 v 14.80616 z m -6.57614,-2.50051 q 1.20103,0 2.22486,-0.37409 1.02383,-0.37409 1.77202,-1.12227 0.74818,-0.76788 1.16165,-1.90984 0.43316,-1.16166 0.43316,-2.71709 v -1.94922 l -2.81553,0.13783 q -1.77202,0.0787 -2.97305,0.39378 -1.20103,0.31502 -1.92953,0.88601 -0.7088,0.55129 -1.02383,1.35854 -0.31502,0.78756 -0.31502,1.7917 0,1.8114 0.94507,2.65802 0.96477,0.84663 2.5202,0.84663 z" />
      <path
         id="path6691"
         style="font-style:normal;font-variant:normal;font-weight:normal;font-stretch:normal;font-size:40.32316971px;font-family:'Droid Sans';-inkscape-font-specification:'Droid Sans';fill:#ffffff;fill-opacity:1;stroke-width:0.23263367"
         d="m 175.00545,175.70586 v 2.22486 l -3.87874,0.5316 q 0.55129,0.68912 0.92538,1.77202 0.3741,1.06321 0.3741,2.42175 0,1.49637 -0.47254,2.77616 -0.45285,1.2601 -1.39792,2.18548 -0.92539,0.92539 -2.30362,1.45699 -1.37824,0.51192 -3.20932,0.51192 -0.43316,0 -0.86631,0 -0.43316,-0.0197 -0.70881,-0.0788 -0.33471,0.19689 -0.66943,0.45285 -0.31502,0.23627 -0.59067,0.55129 -0.25596,0.31503 -0.43316,0.70881 -0.15751,0.39378 -0.15751,0.86632 0,0.5316 0.23627,0.86631 0.23627,0.31503 0.63005,0.49223 0.41347,0.1772 0.96476,0.23627 0.55129,0.0591 1.16165,0.0591 h 3.46528 q 1.83108,0 3.09118,0.47253 1.2601,0.45285 2.04766,1.24041 0.80725,0.78756 1.16165,1.87046 0.3544,1.06321 0.3544,2.26424 0,1.73264 -0.64973,3.11087 -0.63005,1.37824 -1.94922,2.32331 -1.31917,0.96476 -3.34714,1.47668 -2.00828,0.51191 -4.74506,0.51191 -2.10673,0 -3.68185,-0.41347 -1.57512,-0.41347 -2.61864,-1.20103 -1.04352,-0.78756 -1.57513,-1.90984 -0.51191,-1.10258 -0.51191,-2.5005 0,-1.18135 0.37409,-2.08704 0.39378,-0.88601 1.04352,-1.53575 0.64974,-0.64974 1.49637,-1.06321 0.86631,-0.41347 1.7917,-0.63005 -0.82694,-0.37409 -1.35854,-1.18134 -0.53161,-0.80725 -0.53161,-1.85077 0,-1.20103 0.63005,-2.06735 0.63005,-0.88601 1.98859,-1.71295 -0.84662,-0.3544 -1.55543,-0.96476 -0.68912,-0.63005 -1.18134,-1.41761 -0.47254,-0.80725 -0.74819,-1.75233 -0.25595,-0.94507 -0.25595,-1.94921 0,-1.75233 0.49222,-3.13056 0.49223,-1.37824 1.45699,-2.343 0.96476,-0.96476 2.40207,-1.47668 1.4373,-0.51191 3.34713,-0.51191 0.7285,0 1.49637,0.11813 0.78756,0.0985 1.31917,0.27565 z m -15.96782,25.1626 q 0,0.7285 0.25596,1.35855 0.25596,0.63004 0.82694,1.08289 0.59067,0.45285 1.53575,0.70881 0.96476,0.27565 2.38237,0.27565 3.66216,0 5.47356,-1.14197 1.83108,-1.12228 1.83108,-3.24869 0,-0.9057 -0.23627,-1.47668 -0.23627,-0.57098 -0.78756,-0.9057 -0.53161,-0.31502 -1.41761,-0.43316 -0.88601,-0.11813 -2.1658,-0.11813 h -3.46527 q -0.68912,0 -1.4373,0.15751 -0.74819,0.15751 -1.37823,0.59067 -0.61037,0.43316 -1.02384,1.18135 -0.39378,0.76787 -0.39378,1.9689 z m 1.8114,-18.21237 q 0,2.26424 1.0632,3.36683 1.06321,1.10259 3.01243,1.10259 1.9689,0 2.97305,-1.0829 1.02383,-1.10259 1.02383,-3.44559 0,-2.42175 -1.04352,-3.56371 -1.02383,-1.14197 -2.99274,-1.14197 -1.94921,0 -2.99273,1.18135 -1.04352,1.18134 -1.04352,3.5834 z" />
      <path
         id="path6693"
         style="font-style:normal;font-variant:normal;font-weight:normal;font-stretch:normal;font-size:40.32316971px;font-family:'Droid Sans';-inkscape-font-specification:'Droid Sans';fill:#ffffff;fill-opacity:1;stroke-width:0.23263367"
         d="m 192.74528,197.32443 v -13.92015 q 0,-2.55958 -1.04352,-3.83937 -1.02383,-1.27979 -3.229,-1.27979 -1.59481,0 -2.67771,0.51192 -1.0829,0.51191 -1.75233,1.51606 -0.64973,1.00414 -0.94507,2.46113 -0.27565,1.45699 -0.27565,3.34713 v 11.20307 h -3.5834 v -30.63616 h 3.5834 v 9.09634 l -0.15751,2.83523 h 0.19689 q 0.49223,-0.84663 1.16166,-1.45699 0.68911,-0.63005 1.49636,-1.04352 0.80725,-0.41347 1.71295,-0.61036 0.9057,-0.19689 1.85077,-0.19689 3.6031,0 5.41449,1.89015 1.83108,1.87046 1.83108,6.00516 v 14.11704 z" />
      <path
         id="path6695"
         style="font-style:normal;font-variant:normal;font-weight:normal;font-stretch:normal;font-size:40.32316971px;font-family:'Droid Sans';-inkscape-font-specification:'Droid Sans';fill:#ffffff;fill-opacity:1;stroke-width:0.23263367"
         d="m 216.9825,197.32443 -0.5316,-2.89429 h -0.19689 q -0.49223,0.84663 -1.18135,1.47668 -0.66942,0.61036 -1.47668,1.02383 -0.80725,0.39378 -1.71294,0.59067 -0.9057,0.19689 -1.85077,0.19689 -1.79171,0 -3.15025,-0.45284 -1.35855,-0.45285 -2.26424,-1.41762 -0.9057,-0.96476 -1.37823,-2.46113 -0.45285,-1.49636 -0.45285,-3.56371 v -14.11705 h 3.5834 v 13.92015 q 0,2.55958 1.04352,3.83937 1.04352,1.27979 3.22901,1.27979 1.59481,0 2.67771,-0.51192 1.0829,-0.51191 1.73263,-1.49637 0.66943,-1.00414 0.94508,-2.46113 0.29533,-1.45699 0.29533,-3.34713 v -11.22276 h 3.58341 v 21.61857 z" />
      <path
         id="path6697"
         style="font-style:normal;font-variant:normal;font-weight:normal;font-stretch:normal;font-size:40.32316971px;font-family:'Droid Sans';-inkscape-font-specification:'Droid Sans';fill:#ffffff;fill-opacity:1;stroke-width:0.23263367"
         d="m 236.49435,175.31208 q 1.85077,0 3.36683,0.7088 1.51605,0.70881 2.57926,2.12642 1.0829,1.39792 1.67357,3.48496 0.59067,2.08704 0.59067,4.84351 0,2.77615 -0.59067,4.88288 -0.59067,2.08704 -1.67357,3.50465 -1.06321,1.41761 -2.57926,2.14611 -1.51606,0.7088 -3.36683,0.7088 -1.16165,0 -2.10673,-0.25595 -0.94507,-0.25596 -1.71294,-0.66943 -0.74819,-0.43316 -1.33886,-1.00414 -0.57098,-0.57099 -1.02383,-1.20104 h -0.23627 l -0.72849,2.73678 h -2.61865 v -30.63616 h 3.58341 v 7.40309 q 0,0.68911 -0.0197,1.47667 -0.0197,0.76788 -0.0591,1.43731 -0.0394,0.78756 -0.0787,1.53574 h 0.15751 q 0.45285,-0.68912 1.02383,-1.27979 0.57098,-0.59067 1.31917,-1.02383 0.76787,-0.43316 1.71294,-0.66943 0.94508,-0.25595 2.12642,-0.25595 z m -0.68912,2.97304 q -1.57512,0 -2.63833,0.51192 -1.04352,0.49222 -1.69326,1.51606 -0.63005,1.02383 -0.90569,2.55957 -0.25596,1.53575 -0.25596,3.6031 0,1.98859 0.25596,3.54403 0.27564,1.53574 0.90569,2.59895 0.64974,1.04352 1.71295,1.59481 1.06321,0.53161 2.65802,0.53161 2.65802,0 3.89843,-2.14611 1.2601,-2.14611 1.2601,-6.16267 0,-4.09532 -1.2601,-6.12329 -1.24041,-2.02798 -3.93781,-2.02798 z" />
    </g>
    <path
       id="circle5971"
       d="m 185.05791,-57.387993 a 9.4568377,9.4568377 0 0 1 -9.45684,9.456838 9.4568377,9.4568377 0 0 1 -9.45683,-9.456838 9.4568377,9.4568377 0 0 1 9.45683,-9.456838 9.4568377,9.4568377 0 0 1 9.45684,9.456838 z"
       style="fill:#df6756;fill-opacity:1;stroke-width:1.0287683"
       transform="rotate(90)" />
    <path
       id="circle5973"
       d="m 185.05791,-93.083824 a 6.6603918,6.6603918 0 0 1 -6.66039,6.660392 6.6603918,6.6603918 0 0 1 -6.66039,-6.660392 6.6603918,6.6603918 0 0 1 6.66039,-6.660392 6.6603918,6.6603918 0 0 1 6.66039,6.660392 z"
       style="fill:#df6756;fill-opacity:1;stroke-width:0.72455508"
       transform="rotate(90)" />
    <path
       id="circle5975"
       d="m 204.46854,-77.621117 a 6.6603918,6.6603918 0 0 1 -6.66039,6.660392 6.6603918,6.6603918 0 0 1 -6.66039,-6.660392 6.6603918,6.6603918 0 0 1 6.66039,-6.660391 6.6603918,6.6603918 0 0 1 6.66039,6.660391 z"
       style="fill:#df6756;fill-opacity:1;stroke-width:0.72455508"
       transform="rotate(90)" />
  </g>
</svg>
