<?xml version="1.0" encoding="UTF-8" standalone="no"?>
<svg
   xmlns:dc="http://purl.org/dc/elements/1.1/"
   xmlns:cc="http://creativecommons.org/ns#"
   xmlns:rdf="http://www.w3.org/1999/02/22-rdf-syntax-ns#"
   xmlns:svg="http://www.w3.org/2000/svg"
   xmlns="http://www.w3.org/2000/svg"
   id="svg5998"
   version="1.1"
   viewBox="0 0 196.77353 40.867222"
   height="40.867222mm"
   width="196.77353mm">
  <defs
     id="defs5992" />
  <metadata
     id="metadata5995">
    <rdf:RDF>
      <cc:Work
         rdf:about="">
        <dc:format>image/svg+xml</dc:format>
        <dc:type
           rdf:resource="http://purl.org/dc/dcmitype/StillImage" />
        <dc:title></dc:title>
      </cc:Work>
    </rdf:RDF>
  </metadata>
  <g
     transform="translate(-33.904899,-64.899722)"
     id="layer1">
    <g
       id="text4618"
       style="font-style:normal;font-variant:normal;font-weight:normal;font-stretch:normal;font-size:9.30534744px;line-height:1.25;font-family:'JetBrains Mono';-inkscape-font-specification:'JetBrains Mono';letter-spacing:0px;word-spacing:0px;fill:#344150;fill-opacity:1;stroke:none;stroke-width:0.23263367"
       aria-label="taghub">
      <path
         id="path6722"
         style="font-style:normal;font-variant:normal;font-weight:normal;font-stretch:normal;font-size:40.32316971px;font-family:'Droid Sans';-inkscape-font-specification:'Droid Sans';fill:#344150;fill-opacity:1;stroke-width:0.23263367"
         d="m 115.79284,93.540046 q 0.3544,0 0.78756,-0.03938 0.45285,-0.03938 0.86632,-0.09844 0.41347,-0.05907 0.74818,-0.137824 0.3544,-0.07876 0.5316,-0.137823 v 2.717089 q -0.25595,0.118134 -0.64974,0.236268 -0.39378,0.118134 -0.86631,0.196891 -0.47254,0.09844 -0.98446,0.137823 -0.51191,0.05907 -1.00414,0.05907 -1.22072,0 -2.26424,-0.315025 -1.04352,-0.315024 -1.81139,-1.082897 -0.74818,-0.767873 -1.18134,-2.06735 -0.43316,-1.319166 -0.43316,-3.30776 V 77.158758 h -3.0518 v -1.594813 l 3.0518,-1.535745 1.53574,-4.528481 h 2.06735 v 4.96164 h 5.43418 v 2.697399 h -5.43418 v 12.541924 q 0,1.909837 0.61036,2.874601 0.63005,0.964763 2.04767,0.964763 z" />
      <path
         id="path6724"
         style="font-style:normal;font-variant:normal;font-weight:normal;font-stretch:normal;font-size:40.32316971px;font-family:'Droid Sans';-inkscape-font-specification:'Droid Sans';fill:#344150;fill-opacity:1;stroke-width:0.23263367"
         d="m 135.10779,96.079933 -0.72849,-2.992735 h -0.15752 q -0.64973,0.886007 -1.29947,1.535746 -0.64974,0.630049 -1.41761,1.043519 -0.76788,0.41347 -1.71295,0.610361 -0.94508,0.19689 -2.18549,0.19689 -1.35854,0 -2.50051,-0.393781 -1.14196,-0.374092 -1.98859,-1.161654 -0.82694,-0.807251 -1.29948,-2.008283 -0.47253,-1.22072 -0.47253,-2.8746 0,-3.229004 2.26424,-4.961641 2.28393,-1.732636 6.93054,-1.890148 l 3.62279,-0.137823 v -1.358545 q 0,-1.319166 -0.29534,-2.205173 -0.27565,-0.886007 -0.82694,-1.417611 -0.5316,-0.551294 -1.33885,-0.787562 -0.78757,-0.236269 -1.8114,-0.236269 -1.63419,0 -3.0518,0.472537 -1.39792,0.472537 -2.6974,1.141965 l -1.2601,-2.6974 q 1.45699,-0.787562 3.2487,-1.338855 1.7917,-0.551293 3.7606,-0.551293 2.00829,0 3.46528,0.41347 1.47667,0.393781 2.42175,1.279788 0.96476,0.866318 1.4373,2.224862 0.47254,1.358545 0.47254,3.288071 v 14.806164 z m -6.57614,-2.500509 q 1.20103,0 2.22486,-0.374092 1.02383,-0.374092 1.77202,-1.122276 0.74818,-0.767872 1.16165,-1.909837 0.43316,-1.161654 0.43316,-2.717089 v -1.949215 l -2.81554,0.137823 q -1.77201,0.07876 -2.97304,0.393781 -1.20103,0.315025 -1.92953,0.886007 -0.7088,0.551293 -1.02383,1.358544 -0.31502,0.787562 -0.31502,1.791704 0,1.811392 0.94507,2.658021 0.96476,0.846629 2.5202,0.846629 z" />
      <path
         id="path6726"
         style="font-style:normal;font-variant:normal;font-weight:normal;font-stretch:normal;font-size:40.32316971px;font-family:'Droid Sans';-inkscape-font-specification:'Droid Sans';fill:#344150;fill-opacity:1;stroke-width:0.23263367"
         d="m 160.9792,74.461359 v 2.224862 l -3.87874,0.531604 q 0.55129,0.689117 0.92538,1.772015 0.37409,1.063208 0.37409,2.421753 0,1.496367 -0.47253,2.776155 -0.45285,1.260099 -1.39793,2.185485 -0.92538,0.925385 -2.30361,1.456989 -1.37824,0.511915 -3.20932,0.511915 -0.43316,0 -0.86632,0 -0.43316,-0.01969 -0.7088,-0.07876 -0.33472,0.196891 -0.66943,0.452848 -0.31503,0.236269 -0.59067,0.551294 -0.25596,0.315024 -0.43316,0.708805 -0.15751,0.393781 -0.15751,0.866318 0,0.531605 0.23626,0.866319 0.23627,0.315024 0.63005,0.492226 0.41347,0.177201 0.96477,0.236268 0.55129,0.05907 1.16165,0.05907 h 3.46527 q 1.83109,0 3.09118,0.472538 1.2601,0.452848 2.04767,1.24041 0.80725,0.787562 1.16165,1.870459 0.3544,1.063209 0.3544,2.264241 0,1.732636 -0.64974,3.110866 -0.63005,1.37824 -1.94921,2.32331 -1.31917,0.96476 -3.34714,1.47668 -2.00828,0.51191 -4.74506,0.51191 -2.10673,0 -3.68185,-0.41347 -1.57513,-0.41347 -2.61865,-1.20103 -1.04352,-0.78756 -1.57512,-1.90983 -0.51192,-1.10259 -0.51192,-2.500514 0,-1.181343 0.3741,-2.087039 0.39378,-0.886007 1.04352,-1.535746 0.64973,-0.649738 1.49636,-1.063208 0.86632,-0.41347 1.79171,-0.63005 -0.82694,-0.374092 -1.35855,-1.181343 -0.5316,-0.807251 -0.5316,-1.85077 0,-1.201032 0.63005,-2.06735 0.63005,-0.886007 1.98859,-1.712947 -0.84663,-0.354403 -1.55543,-0.964764 -0.68912,-0.630049 -1.18135,-1.417611 -0.47253,-0.807251 -0.74818,-1.752325 -0.25596,-0.945075 -0.25596,-1.949216 0,-1.752325 0.49223,-3.130559 0.49223,-1.378233 1.45699,-2.342996 0.96476,-0.964764 2.40206,-1.476679 1.4373,-0.511915 3.34714,-0.511915 0.7285,0 1.49637,0.118134 0.78756,0.09844 1.31916,0.275647 z m -15.96782,25.162603 q 0,0.728498 0.25596,1.358548 0.25596,0.63005 0.82694,1.08289 0.59067,0.45285 1.53574,0.70881 0.96477,0.27565 2.38238,0.27565 3.66216,0 5.47355,-1.14197 1.83109,-1.12227 1.83109,-3.248692 0,-0.905696 -0.23627,-1.476678 -0.23627,-0.570983 -0.78756,-0.905696 -0.53161,-0.315025 -1.41762,-0.433159 -0.886,-0.118135 -2.16579,-0.118135 h -3.46527 q -0.68912,0 -1.4373,0.157513 -0.74819,0.157512 -1.37824,0.590671 -0.61036,0.433159 -1.02383,1.181343 -0.39378,0.767873 -0.39378,1.968905 z m 1.81139,-18.212369 q 0,2.26424 1.06321,3.366827 1.06321,1.102586 3.01243,1.102586 1.9689,0 2.97304,-1.082897 1.02383,-1.102587 1.02383,-3.445584 0,-2.421752 -1.04352,-3.563717 -1.02383,-1.141965 -2.99273,-1.141965 -1.94922,0 -2.99274,1.181343 -1.04352,1.181343 -1.04352,3.583407 z" />
      <path
         id="path6728"
         style="font-style:normal;font-variant:normal;font-weight:normal;font-stretch:normal;font-size:40.32316971px;font-family:'Droid Sans';-inkscape-font-specification:'Droid Sans';fill:#344150;fill-opacity:1;stroke-width:0.23263367"
         d="M 178.71903,96.079933 V 82.159776 q 0,-2.559576 -1.04352,-3.839364 -1.02383,-1.279788 -3.229,-1.279788 -1.59482,0 -2.67771,0.511915 -1.0829,0.511916 -1.75233,1.516057 -0.64974,1.004141 -0.94507,2.461131 -0.27565,1.456989 -0.27565,3.347138 v 11.203068 h -3.58341 V 65.443775 h 3.58341 v 9.09634 l -0.15751,2.835223 h 0.19689 q 0.49222,-0.846629 1.16165,-1.45699 0.68912,-0.630049 1.49637,-1.043519 0.80725,-0.41347 1.71295,-0.610361 0.90569,-0.19689 1.85077,-0.19689 3.60309,0 5.41449,1.890148 1.83108,1.87046 1.83108,6.00516 v 14.117047 z" />
      <path
         id="path6730"
         style="font-style:normal;font-variant:normal;font-weight:normal;font-stretch:normal;font-size:40.32316971px;font-family:'Droid Sans';-inkscape-font-specification:'Droid Sans';fill:#344150;fill-opacity:1;stroke-width:0.23263367"
         d="m 202.95625,96.079933 -0.53161,-2.89429 h -0.19689 q -0.49222,0.846629 -1.18134,1.476679 -0.66943,0.61036 -1.47668,1.02383 -0.80725,0.393781 -1.71295,0.590672 -0.90569,0.19689 -1.85077,0.19689 -1.7917,0 -3.15024,-0.452848 -1.35855,-0.452848 -2.26424,-1.417611 -0.9057,-0.964764 -1.37824,-2.461131 -0.45285,-1.496368 -0.45285,-3.563718 V 74.461359 h 3.58341 v 13.920157 q 0,2.559576 1.04352,3.839364 1.04352,1.279788 3.229,1.279788 1.59482,0 2.67772,-0.511915 1.08289,-0.511916 1.73263,-1.496368 0.66943,-1.004141 0.94508,-2.461131 0.29533,-1.456989 0.29533,-3.347138 V 74.461359 h 3.58341 v 21.618574 z" />
      <path
         id="path6732"
         style="font-style:normal;font-variant:normal;font-weight:normal;font-stretch:normal;font-size:40.32316971px;font-family:'Droid Sans';-inkscape-font-specification:'Droid Sans';fill:#344150;fill-opacity:1;stroke-width:0.23263367"
         d="m 222.4681,74.067578 q 1.85077,0 3.36682,0.708806 1.51606,0.708805 2.57927,2.126417 1.0829,1.397922 1.67357,3.484961 0.59067,2.087039 0.59067,4.843506 0,2.776156 -0.59067,4.882884 -0.59067,2.087039 -1.67357,3.50465 -1.06321,1.417612 -2.57927,2.146106 -1.51605,0.708806 -3.36682,0.708806 -1.16166,0 -2.10673,-0.255957 -0.94507,-0.255958 -1.71295,-0.669428 -0.74818,-0.433159 -1.33885,-1.004142 -0.57099,-0.570982 -1.02383,-1.201031 h -0.23627 l -0.7285,2.736777 h -2.61864 V 65.443775 h 3.58341 v 7.403082 q 0,0.689117 -0.0197,1.476678 -0.0197,0.767873 -0.0591,1.437301 -0.0394,0.787562 -0.0788,1.535746 h 0.15752 q 0.45284,-0.689117 1.02383,-1.279788 0.57098,-0.590672 1.31916,-1.023831 0.76788,-0.433159 1.71295,-0.669428 0.94507,-0.255957 2.12642,-0.255957 z m -0.68912,2.973046 q -1.57512,0 -2.63833,0.511915 -1.04352,0.492226 -1.69326,1.516057 -0.63005,1.02383 -0.9057,2.559576 -0.25595,1.535746 -0.25595,3.603096 0,1.988594 0.25595,3.544028 0.27565,1.535746 0.9057,2.598955 0.64974,1.043519 1.71295,1.594813 1.06321,0.531604 2.65802,0.531604 2.65802,0 3.89843,-2.146106 1.2601,-2.146106 1.2601,-6.162672 0,-4.095322 -1.2601,-6.123294 -1.24041,-2.027972 -3.93781,-2.027972 z" />
    </g>
    <path
       id="circle4710"
       d="m 83.813397,-43.361736 a 9.4568377,9.4568377 0 0 1 -9.456837,9.456837 9.4568377,9.4568377 0 0 1 -9.456838,-9.456837 9.4568377,9.4568377 0 0 1 9.456838,-9.456838 9.4568377,9.4568377 0 0 1 9.456837,9.456838 z"
       style="fill:#df6756;fill-opacity:1;stroke-width:1.0287683"
       transform="rotate(90)" />
    <path
       id="circle4712"
       d="m 83.813399,-79.057549 a 6.6603918,6.6603918 0 0 1 -6.660391,6.660392 6.6603918,6.6603918 0 0 1 -6.660392,-6.660392 6.6603918,6.6603918 0 0 1 6.660392,-6.660391 6.6603918,6.6603918 0 0 1 6.660391,6.660391 z"
       style="fill:#df6756;fill-opacity:1;stroke-width:0.72455508"
       transform="rotate(90)" />
    <path
       id="circle4714"
       d="m 103.22403,-63.594845 a 6.6603918,6.6603918 0 0 1 -6.660393,6.660392 6.6603918,6.6603918 0 0 1 -6.660392,-6.660392 6.6603918,6.6603918 0 0 1 6.660392,-6.660392 6.6603918,6.6603918 0 0 1 6.660393,6.660392 z"
       style="fill:#df6756;fill-opacity:1;stroke-width:0.72455508"
       transform="rotate(90)" />
  </g>
</svg>
